<svg class="icon" width="16" height="16" viewBox="0 0 1024 1024" xmlns="http://www.w3.org/2000/svg"><path d="M904.084 195.016a67.692 67.692 0 01-59.074-35.784 74.793 74.793 0 010-71.639 67.686 67.686 0 0159.054-35.84c37.673 0 68.214 32.051 68.224 71.613s-30.54 71.64-68.204 71.65zM759.506 493.332a49.04 49.04 0 01-51.902 0 54.344 54.344 0 01-25.154-47.672 51.133 51.133 0 11102.241.03 54.359 54.359 0 01-25.185 47.642zm-529.203 0a54.339 54.339 0 01-25.155-47.672 51.133 51.133 0 11102.241.03 54.349 54.349 0 01-25.185 47.663 49.034 49.034 0 01-51.901-.041zM119.916 732.12h272.742v71.624H85.82a34.99 34.99 0 01-34.094-35.84V123.356a34.98 34.98 0 0134.094-35.804h681.862v71.619H119.916v572.928zM468.95 493.312a54.364 54.364 0 01-25.16-47.672 51.139 51.139 0 11102.252.03 54.349 54.349 0 01-25.19 47.662 49.04 49.04 0 01-51.902-.02zm128.266 238.787H869.96V266.593h68.188v501.315a34.99 34.99 0 01-34.1 35.84h-292.72l-160.476 168.54-48.21-50.632 170.44-179.041a33.28 33.28 0 0124.135-10.516z"/></svg>