<svg class="icon" width="16" height="16" viewBox="0 0 1024 1024" xmlns="http://www.w3.org/2000/svg"><path d="M911.36 757.76H112.64c-44.544 0-61.44-16.896-61.44-61.44V162.55a80.64 80.64 0 0180.625-80.63h760.32a80.635 80.635 0 0180.655 80.63v533.77c0 44.544-16.896 61.44-61.44 61.44zm0-552.96c0-44.544-16.896-61.44-61.44-61.44H174.08c-44.544 0-61.44 16.896-61.44 61.44v430.08c0 44.544 16.896 61.44 61.44 61.44h675.84c44.544 0 61.44-16.896 61.44-61.44V204.8zm-307.287 97.505c-30.5 0-50.586-17.69-50.586-44.544 0-28.81 28.253-52.372 60.97-52.372 29.762 0 51.322 17.664 51.322 44.544 0 30.105-28.252 52.372-61.706 52.372zm8.909 104.115L498.007 534.098c-4.46 9.825-12.626 26.21-12.626 36.68a8.704 8.704 0 008.909 9.17c22.303 0 63.211-55.665 73.626-55.665a9.907 9.907 0 018.908 9.815c0 18.99-86.983 100.193-162.094 100.193-26.772 0-45.363-11.12-45.363-36.004 0-31.431 25.283-85.125 30.5-96.256l113.48-115.261c5.217-11.776-1.475-17.664-7.44-17.664-27.515 0-63.211 56.97-76.575 56.97a9.825 9.825 0 01-9.676-8.52c0-11.776 32.716-39.28 42.393-47.795 29.737-24.883 68.409-43.873 111.534-43.873 31.965-.02 66.181 16.998 39.399 80.532zm-180.5 474.22V819.2h158.043v61.44s45.435 21.115 66.176 41.272-2.959 20.168-2.959 20.168H369.265s-23.711 0-2.965-20.168 66.181-41.272 66.181-41.272z"/></svg>