<svg class="icon" width="16" height="16" viewBox="0 0 1024 1024" xmlns="http://www.w3.org/2000/svg"><path d="M818.642 288.302V139.873a88.12 88.12 0 00-87.552-88.606H205.358a88.115 88.115 0 00-87.552 88.606v744.254a88.11 88.11 0 0087.552 88.576h613.284a88.11 88.11 0 0087.552-88.576V391.854c-.026-34.514-87.552-69.606-87.552-103.552zm0 595.825H205.363V139.873h525.742v148.43c0 59.831 44.334 95.508 77.312 121.39 2.852 2.308 6.82 5.18 10.24 8.053v466.38zm-569.534-613.71c0 24.48 20.71 43.843 46.9 43.843h212.178c25.6 0 46.904-19.932 46.904-43.842s-20.705-43.843-46.904-43.843H296.008c-25.575 0-46.9 19.354-46.9 43.843zm0 175.438c0 24.478 20.71 43.842 46.9 43.842h299.786c25.6 0 46.9-19.364 46.9-43.842 0-23.91-20.706-43.843-46.9-43.843H296.008c-25.575-.005-46.9 19.364-46.9 43.843zm0 175.99c0 23.91 20.71 43.842 46.9 43.842h387.394c25.6 0 46.905-19.359 46.905-43.843 0-23.91-20.71-43.837-46.905-43.837H296.008c-25.575 0-46.9 19.354-46.9 43.837z"/></svg>