<svg class="icon" width="16" height="16" viewBox="0 0 1024 1024" xmlns="http://www.w3.org/2000/svg"><path d="M479.304 658.816a59.223 59.223 0 016.272 26.716 58.598 58.598 0 01-17.07 41.682L321.833 874.25a59.064 59.064 0 01-83.133 0l-89.196-89.436a59.459 59.459 0 010-83.374l146.647-146.944a58.092 58.092 0 0141.57-17.157 58.88 58.88 0 0126.654 6.303l58.655-58.809a139.97 139.97 0 00-184.32 11.986L92.032 643.85a141.082 141.082 0 000 198.564l89.216 89.426a140.186 140.186 0 00198.031 0l146.668-147.036a141.133 141.133 0 0011.976-184.786zm450.273-477.23L840.361 92.16a140.186 140.186 0 00-198.037 0L495.657 239.186a141.194 141.194 0 00-11.98 184.832l58.654-58.84a59.392 59.392 0 01-6.272-26.715 58.496 58.496 0 0117.07-41.682L699.802 149.75a59.064 59.064 0 0183.133 0l89.221 89.436a59.392 59.392 0 010 83.307L725.504 469.53a58.092 58.092 0 01-41.57 17.157 58.921 58.921 0 01-26.654-6.303l-58.65 58.783a140.155 140.155 0 00184.32-11.986l146.668-147.036a141.107 141.107 0 00-.041-198.56zM260.71 301.962l-172.354-172.8 40.617-40.724 172.35 172.8zM395.914 51.2h57.452V224h-57.452V51.2zM51.2 396.8h172.365v57.6H51.2v-57.6zm709.714 325.238l172.35 172.8-40.618 40.724-172.349-172.8zM568.269 800h57.451v172.8H568.27V800zm229.8-230.4h172.35v57.6H798.07v-57.6z"/></svg>