<svg class="icon" width="16" height="16" viewBox="0 0 1024 1024" xmlns="http://www.w3.org/2000/svg"><path d="M842.706 776.12V150.057s1.024-65.905-65.628-65.905l-492.222-1.024S278.707 51.2 317.676 51.2h492.216s65.628-4.096 65.628 61.788v630.185s0 32.947-32.814 32.947zm-32.814-594.14v595.175L611.978 972.8H219.233a65.772 65.772 0 01-65.633-65.905V181.98a65.766 65.766 0 0165.633-65.904h525.03a65.761 65.761 0 0165.629 65.904zm-82.038 197.704h-196.91a16.476 16.476 0 000 32.947h196.89a16.476 16.476 0 00.02-32.947zm16.41-49.429a16.445 16.445 0 00-16.41-16.476h-196.91a16.476 16.476 0 000 32.947h196.89a16.44 16.44 0 0016.43-16.486zm-16.41 115.333h-196.91a16.476 16.476 0 000 32.948h196.89a16.476 16.476 0 00.02-32.948zm-125.102 482.94l158.94-159.606s35.891-26.778-12.288-25.744h-138.45s-30.766 0-30.766 31.923v131.8s-6.149 50.452 22.564 21.621zM235.648 676.25h492.216a16.476 16.476 0 000-32.948H235.638a16.476 16.476 0 000 32.942zm0-98.852h492.216a16.481 16.481 0 000-32.958H235.638a16.481 16.481 0 000 32.953zm-16.384-131.81a32.886 32.886 0 0032.82 32.948h131.215a32.88 32.88 0 0032.814-32.948v-98.862a32.88 32.88 0 00-32.814-32.947H252.042a32.88 32.88 0 00-32.819 32.947v98.862zM711.48 181.985H252.042a32.947 32.947 0 000 65.895h459.402a32.947 32.947 0 000-65.9z"/></svg>