<svg class="icon" width="16" height="16" viewBox="0 0 1024 1024" xmlns="http://www.w3.org/2000/svg"><path d="M511.805 972.764a460.8 460.8 0 11460.626-460.8 460.713 460.713 0 01-460.626 460.8zm0-864a403.103 403.103 0 00-259.097 711.854v8.146h10.306a401.357 401.357 0 00497.577 0h10.317v-8.146a403.103 403.103 0 00-259.103-711.854zm259.103 403.2a259.103 259.103 0 10-518.2 0h-57.59a316.682 316.682 0 11633.344 0h-57.554zM503.834 627.978l67.64-267.197a27.965 27.965 0 0134.396-21.028 29.952 29.952 0 0119.866 36.419l-67.072 264.97a86.676 86.676 0 11-54.83-13.164zM483.016 742.4h57.58v-57.646h-57.58V742.4z"/></svg>