<svg class="icon" width="16" height="16" viewBox="0 0 1024 1024" xmlns="http://www.w3.org/2000/svg"><path d="M474.112 65.09c-31.319 0-26.501 14.101-43.366 16.523s3.415-6.82-47.181 2.872-68.444 75.187-70.85 99.446-3.011 92.426-1.419 128.809c4.818 21.821-12.042 21.821-12.042 21.821-30.316-1.96-16.686 93.138-16.686 93.138 4.357 23.44-1.567 35.113 43.32 53.248 21.386 61.312 77.245 93.742 77.245 93.742s.282 37.837 1.127 65.849c-4.567-2.279 15.58 71.582-123.838 92.308S114.273 799.022 87.987 824.32 62.725 972.355 62.725 972.355l899.922.486s-6.682-123.197-32.973-148.521-54.927-70.779-194.37-91.479c-135.563-19.743-113.27-92.575-114.233-96.937.251-11.039 1.72-57.825 1.72-57.825a239.98 239.98 0 0068.721-98.944c33.649-21.381 46.464-24.361 52.025-49.009 0 0 9.897-96.077-21.873-95.59 0 0-15.058 4.879-10.24-16.958s3.21-90 .799-114.247 1.223-93.579-49.372-103.281c-34.535-6.472-39.035-.067-55.9-2.488s-36.941-46.403-68.26-46.403z"/></svg>