<svg class="icon" width="16" height="16" viewBox="0 0 1024 1024" xmlns="http://www.w3.org/2000/svg"><path d="M916.48 972.8h-76.498a10.24 10.24 0 01-10.24-10.24V546.493a10.24 10.24 0 0110.24-10.24h76.498a10.24 10.24 0 0110.24 10.24V962.56a10.24 10.24 0 01-10.24 10.24zm-145.47 0h-76.497a10.24 10.24 0 01-10.24-10.24V716.288a10.24 10.24 0 0110.24-10.24h76.498a10.24 10.24 0 0110.24 10.24V962.56a10.24 10.24 0 01-10.24 10.24zm-145.469 0h-76.498a10.24 10.24 0 01-10.24-10.24V61.44a10.24 10.24 0 0110.24-10.24h76.498a10.24 10.24 0 0110.24 10.24v901.12a10.24 10.24 0 01-10.24 10.24zm-145.464 0h-76.498a10.24 10.24 0 01-10.24-10.24V303.964a10.24 10.24 0 0110.24-10.24h76.498a10.24 10.24 0 0110.24 10.24V962.56a10.24 10.24 0 01-10.24 10.24zm-145.47 0H258.11a10.24 10.24 0 01-10.24-10.24V716.288a10.24 10.24 0 0110.24-10.24h76.498a10.24 10.24 0 0110.24 10.24V962.56a10.24 10.24 0 01-10.24 10.24zm-145.47 0H112.64a10.24 10.24 0 01-10.24-10.24V570.747a10.24 10.24 0 0110.24-10.24h76.498a10.24 10.24 0 0110.24 10.24V962.56a10.24 10.24 0 01-10.24 10.24z"/></svg>