<svg class="icon" width="16" height="16" viewBox="0 0 1024 1024" xmlns="http://www.w3.org/2000/svg"><path d="M911.36 761.784H112.64c-44.544 0-61.44-17.008-61.44-61.808V163.03a80.896 80.896 0 0180.625-81.111h760.32a80.896 80.896 0 0180.655 81.111v536.945c0 44.8-16.896 61.808-61.44 61.808zm0-556.252c0-44.8-16.896-61.808-61.44-61.808H174.08c-44.544 0-61.44 17.008-61.44 61.808v432.64c0 44.805 16.896 61.809 61.44 61.809h675.84c44.544 0 61.44-17.004 61.44-61.809v-432.64zM235.52 452.756l61.44-61.808L419.84 514.56l307.2-247.224 61.44 61.803-368.64 309.028zm196.966 432.64v-61.808h158.045v61.803s45.434 21.243 66.176 41.524-2.965 20.285-2.965 20.285H369.265s-23.711 0-2.965-20.28 66.181-41.529 66.181-41.529z"/></svg>