<svg class="icon" width="16" height="16" viewBox="0 0 1024 1024" xmlns="http://www.w3.org/2000/svg"><path d="M410.624 51.2h207.872a10.24 10.24 0 0110.24 10.24v901.12a10.24 10.24 0 01-10.24 10.24H410.624a10.24 10.24 0 01-10.24-10.24V61.44a10.24 10.24 0 0110.24-10.24zm24.893 52.972h158.096v141.941h-158.1V104.172zm0 194.913h158.096v18.002h-158.1v-18.002zm0 35.487h158.096v18.001h-158.1v-18.001zm0 35.486h158.096v18.514h-158.1v-18.514zm79.043 460.918a44.293 44.293 0 11-44.38 44.293 44.334 44.334 0 0144.38-44.293zm177.664-496.404H901.12a10.24 10.24 0 0110.24 10.24v564.776a10.24 10.24 0 01-10.24 10.24H692.224a10.24 10.24 0 01-10.24-10.24V344.812a10.24 10.24 0 0110.24-10.24zm25.41 54h158.101v140.913H717.609V388.572zm0 193.884h158.101v18.002H717.609v-18.002zm0 36.516h158.101v16.456H717.609v-16.456zm0 34.97h158.101v17.485H717.609v-17.485zm79.053 123.945a43.97 43.97 0 11-44.436 43.97 44.201 44.201 0 0144.421-43.97zM128 441.544h208.896a10.24 10.24 0 0110.24 10.24v457.804a10.24 10.24 0 01-10.24 10.24H128a10.24 10.24 0 01-10.24-10.24V451.784a10.24 10.24 0 0110.24-10.24zm25.41 52.971h158.101v140.913h-158.1V494.515zm0 159.427h158.101v17.485h-158.1v-17.485zm0 35.486h158.101v17.485h-158.1v-17.485zm0 35.487h158.101V742.4h-158.1v-17.485zm79.038 52.972a43.97 43.97 0 11-44.431 43.97 44.206 44.206 0 0144.431-43.97z"/></svg>