<svg class="icon" width="16" height="16" viewBox="0 0 1024 1024" xmlns="http://www.w3.org/2000/svg"><path d="M915.195 742.4h-806.4c-31.806 0-57.595-54.595-57.595-86.405V108.79a57.605 57.605 0 0157.59-57.59h806.4a57.595 57.595 0 0157.61 57.59v547.205c0 31.81-25.79 86.405-57.605 86.405zm0-576a57.6 57.6 0 00-57.595-57.61H166.4a57.605 57.605 0 00-57.61 57.61v403.2a57.605 57.605 0 0057.61 57.6h691.2a57.6 57.6 0 0057.6-57.6V166.4zM396.8 886.395v-86.4h230.4v86.4s57.6 28.795 86.4 57.6-28.805 28.805-28.805 28.805h-345.6s-57.6 0-28.8-28.8 86.405-57.605 86.405-57.605z"/></svg>